HIERARCHY
ROOT SpineBase
{
  OFFSET 0.000000 0.000000 0.000000
  CHANNELS 6 Xposition Yposition Zposition Zrotation Xrotation Yrotation
  JOINT SpineMid
  {
    OFFSET -0.000000 31.543440 0.000000
    CHANNELS 3 Zrotation Xrotation Yrotation
    JOINT SpineShoulder
    {
      OFFSET 0.070914 23.425633 -0.757229
      CHANNELS 3 Zrotation Xrotation Yrotation
      JOINT Neck
      {
        OFFSET 0.046110 7.743116 -0.576026
        CHANNELS 3 Zrotation Xrotation Yrotation
        JOINT Head
        {
          OFFSET 3.361260 13.429790 1.739307
          CHANNELS 3 Zrotation Xrotation Yrotation
          End Site
          {
            OFFSET 0 0 0
          }
        }
      }
      JOINT ShoulderLeft
      {
        OFFSET -13.682336 -2.137962 -9.854689
        CHANNELS 3 Zrotation Xrotation Yrotation
        JOINT ElbowLeft
        {
          OFFSET -5.949432 -24.567318 -3.272229
          CHANNELS 3 Zrotation Xrotation Yrotation
          JOINT WristLeft
          {
            OFFSET 3.935492 -22.154067 -4.383598
            CHANNELS 3 Zrotation Xrotation Yrotation
            JOINT HandLeft
            {
              OFFSET 2.495698 -0.449226 2.222874
              CHANNELS 3 Zrotation Xrotation Yrotation
              JOINT HandTipLeft
              {
                OFFSET 4.191150 -7.388144 -2.216059
                CHANNELS 3 Zrotation Xrotation Yrotation
                End Site
                {
                  OFFSET 0 0 0
                }
              }
              JOINT ThumbLeft
              {
                OFFSET -6.328732 -1.751547 1.868547
                CHANNELS 3 Zrotation Xrotation Yrotation
                End Site
                {
                  OFFSET 0 0 0
                }
              }
            }
          }
        }
      }
      JOINT ShoulderRight
      {
        OFFSET 15.151930 -4.835119 8.379704
        CHANNELS 3 Zrotation Xrotation Yrotation
        JOINT ElbowRight
        {
          OFFSET 2.883606 -27.589192 5.436951
          CHANNELS 3 Zrotation Xrotation Yrotation
          JOINT WristRight
          {
            OFFSET 0.399095 -22.092310 -6.348639
            CHANNELS 3 Zrotation Xrotation Yrotation
            JOINT HandRight
            {
              OFFSET -2.186609 -5.186997 -2.917456
              CHANNELS 3 Zrotation Xrotation Yrotation
              JOINT HandTipRight
              {
                OFFSET -1.035307 -4.844654 -2.181208
                CHANNELS 3 Zrotation Xrotation Yrotation
                End Site
                {
                  OFFSET 0 0 0
                }
              }
              JOINT ThumbRight
              {
                OFFSET -2.004144 1.103025 -3.997519
                CHANNELS 3 Zrotation Xrotation Yrotation
                End Site
                {
                  OFFSET 0 0 0
                }
              }
            }
          }
        }
      }
    }
  }
  JOINT HipLeft
  {
    OFFSET -6.194999 1.273771 -6.996213
    CHANNELS 3 Zrotation Xrotation Yrotation
    JOINT KneeLeft
    {
      OFFSET -8.717290 -34.317238 -0.457431
      CHANNELS 3 Zrotation Xrotation Yrotation
      JOINT AnkleLeft
      {
        OFFSET -6.504775 -32.609533 10.403475
        CHANNELS 3 Zrotation Xrotation Yrotation
        JOINT FootLeft
        {
          OFFSET 6.733034 -3.321349 -12.919307
          CHANNELS 3 Zrotation Xrotation Yrotation
          End Site
          {
            OFFSET 0 0 0
          }
        }
      }
    }
  }
  JOINT HipRight
  {
    OFFSET 6.824061 0.055248 -0.160488
    CHANNELS 3 Zrotation Xrotation Yrotation
    JOINT KneeRight
    {
      OFFSET -3.691218 -34.758605 4.889110
      CHANNELS 3 Zrotation Xrotation Yrotation
      JOINT AnkleRight
      {
        OFFSET -5.167671 -34.793448 11.029596
        CHANNELS 3 Zrotation Xrotation Yrotation
        JOINT FootRight
        {
          OFFSET 5.744016 -3.785990 -12.118948
          CHANNELS 3 Zrotation Xrotation Yrotation
          End Site
          {
            OFFSET 0 0 0
          }
        }
      }
    }
  }
}
MOTION
Frames: 8
Frame Time: 0.033333
-32.231734 78.111130 376.893448 0.000000 0.000000 -27.701954 -0.000000 0.000000 27.701954 -0.000000 0.000000 0.000000 -0.000000 0.000000 0.000000 0.000000 0.000000 0.000000 -0.000000 0.000000 0.000000 -0.000000 0.000000 0.000000 -0.000000 0.000000 0.000000 -0.000000 0.000000 0.000000 0.000000 0.000000 0.000000 0.000000 0.000000 0.000000 -0.000000 0.000000 0.000000 -0.000000 0.000000 0.000000 -0.000000 0.000000 0.000000 -0.000000 0.000000 0.000000 0.000000 0.000000 0.000000 0.000000 0.000000 0.000000 -0.000000 0.000000 27.701954 -0.000000 0.000000 0.000000 -0.000000 0.000000 0.000000 0.000000 0.000000 0.000000 -0.000000 0.000000 27.701954 -0.000000 0.000000 0.000000 -0.000000 0.000000 0.000000 0.000000 0.000000 0.000000
-32.235176 78.122424 376.832927 0.014518 -0.048975 -27.622205 -0.035570 0.036662 27.622222 -0.000000 0.000000 0.000000 -0.000000 0.000000 0.000000 0.000000 0.000000 0.000000 -0.000000 0.000000 0.000000 -0.000000 0.000000 0.000000 -0.014200 -0.624205 -3.446581 -0.023352 0.623929 3.446631 0.000000 0.000000 0.000000 0.000000 0.000000 0.000000 -0.000000 0.000000 0.000000 0.259341 -0.893884 -0.088847 -1.084454 1.902463 0.148893 5.828358 -4.612439 -1.298212 0.000000 0.000000 0.000000 0.000000 0.000000 0.000000 -0.035570 0.036662 27.622222 -0.000000 0.000000 0.000000 -1.216144 -1.835716 1.080058 0.000000 0.000000 0.000000 -0.035570 0.036662 27.622222 -0.000000 0.000000 0.000000 -0.000000 0.000000 0.000000 0.000000 0.000000 0.000000
-32.242694 78.131618 376.780269 0.029045 -0.098506 -27.550092 -0.071313 0.073902 27.550163 -0.000000 0.000000 0.000000 -0.000000 0.000000 0.000000 0.000000 0.000000 0.000000 -0.000000 0.000000 0.000000 -0.000000 0.000000 0.000000 -0.410638 -0.757608 -6.158760 1.192638 0.598595 5.728238 0.000000 0.000000 0.000000 0.000000 0.000000 0.000000 -0.000000 0.000000 0.000000 0.407423 -1.625437 -0.141234 -1.731793 3.411103 0.194814 9.802726 -8.205732 -1.738949 0.000000 0.000000 0.000000 0.000000 0.000000 0.000000 -0.071313 0.073902 27.550163 -0.000000 0.000000 0.000000 -2.292953 -3.522680 2.031569 0.000000 0.000000 0.000000 -0.071313 0.073902 27.550163 -0.000000 0.000000 0.000000 -0.000000 0.000000 0.000000 0.000000 0.000000 0.000000
-32.254287 78.138711 376.735474 0.043582 -0.148597 -27.485655 -0.107244 0.111710 27.485816 -0.000000 0.000000 0.000000 0.643523 0.589237 -0.234304 0.000000 0.000000 0.000000 -0.000000 0.000000 0.000000 1.027396 -0.092494 -0.218583 -2.173324 -0.305911 -7.927944 2.311068 0.196692 7.488657 0.000000 0.000000 0.000000 0.000000 0.000000 0.000000 -0.000000 0.000000 0.000000 0.444744 -2.193501 -0.159790 -1.878300 4.477920 0.093365 12.083536 -10.746321 -1.649903 0.000000 0.000000 0.000000 0.000000 0.000000 0.000000 -0.107244 0.111710 27.485816 -0.000000 0.000000 0.000000 -3.193325 -4.978036 2.824643 0.000000 0.000000 0.000000 -0.107244 0.111710 27.485816 -0.000000 0.000000 0.000000 -0.000000 0.000000 0.000000 0.000000 0.000000 0.000000
-32.269956 78.143703 376.698541 0.058131 -0.199249 -27.428927 -0.143380 0.150072 27.429216 -0.000000 0.000000 0.000000 0.762421 0.656126 -0.267575 0.000000 0.000000 0.000000 -0.000000 0.000000 0.000000 1.258067 -0.190875 -0.280299 -3.464507 0.650440 -9.135700 3.803517 -0.674087 8.561422 0.000000 0.000000 0.000000 0.000000 0.000000 0.000000 -0.000000 0.000000 0.000000 0.371629 -2.597488 -0.146245 -1.471811 5.057454 -0.187334 12.789402 -12.280384 -1.243241 0.000000 0.000000 0.000000 0.000000 0.000000 0.000000 -0.143380 0.150072 27.429216 -0.000000 0.000000 0.000000 -3.885503 -6.124327 3.434685 0.000000 0.000000 0.000000 -0.143380 0.150072 27.429216 -0.000000 0.000000 0.000000 -0.000000 0.000000 0.000000 0.000000 0.000000 0.000000
-32.289701 78.146594 376.669471 0.072692 -0.250466 -27.379932 -0.179736 0.188978 27.380387 -0.000000 0.000000 0.000000 0.833632 0.658813 -0.277950 0.000000 0.000000 0.000000 -0.000000 0.000000 0.000000 1.432816 -0.322832 -0.336276 -5.026786 2.125796 -9.619271 5.671973 -2.031382 8.985914 0.000000 0.000000 0.000000 0.000000 0.000000 0.000000 -0.000000 0.000000 0.000000 0.188228 -2.837203 -0.101412 -0.480308 5.108859 -0.659494 12.003227 -12.873483 -0.625987 0.000000 0.000000 0.000000 0.000000 0.000000 0.000000 -0.179736 0.188978 27.380387 -0.000000 0.000000 0.000000 -4.344969 -6.897363 3.843365 0.000000 0.000000 0.000000 -0.179736 0.188978 27.380387 -0.000000 0.000000 0.000000 -0.000000 0.000000 0.000000 0.000000 0.000000 0.000000
-32.310434 78.144088 376.652190 0.100849 -0.307032 -27.384737 -0.230773 0.226237 27.385463 -0.000000 0.000000 0.000000 0.818674 0.548378 -0.247487 0.000000 0.000000 0.000000 -0.000000 0.000000 0.000000 1.383222 -0.605585 -0.373566 -6.151202 3.750505 -8.426687 7.008565 -4.177363 7.601327 0.000000 0.000000 0.000000 0.000000 0.000000 0.000000 -0.000000 0.000000 0.000000 -0.189601 -2.921716 -0.003165 1.757605 4.726656 -1.746555 7.778986 -12.042077 0.891971 0.000000 0.000000 0.000000 0.000000 0.000000 0.000000 -0.230773 0.226237 27.385463 -0.000000 0.000000 0.000000 -4.992867 -8.019914 4.378040 0.000000 0.000000 0.000000 -0.230773 0.226237 27.385463 -0.000000 0.000000 0.000000 -0.000000 0.000000 0.000000 0.000000 0.000000 0.000000
-32.338585 78.139690 376.638495 0.112893 -0.362215 -27.357502 -0.266721 0.269823 27.358486 -0.000000 0.000000 0.000000 0.799664 0.407556 -0.208684 0.000000 0.000000 0.000000 -0.000000 0.000000 0.000000 1.399491 -0.813369 -0.411170 -9.364942 7.273720 -6.422249 10.622900 -7.458398 6.289760 0.000000 0.000000 0.000000 0.000000 0.000000 0.000000 -0.000000 0.000000 0.000000 -0.710700 -2.890212 0.135078 3.935089 4.218126 -2.752363 4.505042 -13.793372 2.898327 0.000000 0.000000 0.000000 0.000000 0.000000 0.000000 -0.266721 0.269823 27.358486 -0.000000 0.000000 0.000000 -5.218638 -8.411415 4.577942 0.000000 0.000000 0.000000 -0.266721 0.269823 27.358486 -0.000000 0.000000 0.000000 -0.000000 0.000000 0.000000 0.000000 0.000000 0.000000
